<svg width="256" height="256" viewBox="0 0 256 256" fill="none" xmlns="http://www.w3.org/2000/svg">
<path d="M157.848 249.382C180.265 244.285 201.561 233.009 219.017 215.552C268.328 166.242 268.328 86.2935 219.017 36.9829C169.707 -12.3276 89.7583 -12.3276 40.4477 36.9829C22.9914 54.4392 11.7148 75.735 6.61778 98.1519C47.5243 88.8509 92.1639 100.128 124.018 131.982C155.872 163.836 167.149 208.476 157.848 249.382Z" fill="black"/>
<path d="M24.7336 139.839C31.0453 133.527 41.2787 133.527 47.5905 139.839C53.9022 146.151 53.9022 156.384 47.5905 162.696L27.5907 182.696C21.2789 189.007 11.0456 189.007 4.73382 182.696C-1.57794 176.384 -1.57794 166.15 4.73382 159.839L24.7336 139.839Z" fill="black"/>
<path d="M74.733 158.41C81.0448 152.098 91.2781 152.098 97.5899 158.41C103.902 164.722 103.902 174.955 97.5899 181.267L27.5907 251.266C21.2789 257.578 11.0456 257.578 4.73382 251.266C-1.57794 244.954 -1.57794 234.721 4.73382 228.409L74.733 158.41Z" fill="black"/>
<path d="M93.3042 208.41C99.616 202.098 109.849 202.098 116.161 208.41C122.473 214.721 122.473 224.955 116.161 231.266L96.1613 251.266C89.8496 257.578 79.6162 257.578 73.3045 251.266C66.9927 244.954 66.9927 234.721 73.3045 228.409L93.3042 208.41Z" fill="black"/>
</svg>
